Coordinates
version=1
nRows=26
nColumns=24
inDegrees=yes

Units are S.I. units (second, meters, Newtons, ...)
Angles are in degrees.

endheader
time	pelvis_tilt	pelvis_list	pelvis_rotation	pelvis_tx	pelvis_ty	pelvis_tz	hip_flexion_r	hip_adduction_r	hip_rotation_r	knee_angle_r	ankle_angle_r	subtalar_angle_r	mtp_angle_r	hip_flexion_l	hip_adduction_l	hip_rotation_l	knee_angle_l	ankle_angle_l	subtalar_angle_l	mtp_angle_l	lumbar_extension	lumbar_bending	lumbar_rotation
      7.82000000	     -8.15296416	     -8.06562345	      3.67746621	     -0.76565361	     -0.01655429	      2.07504601	      6.12193901	     13.53124700	    -10.99760025	    -10.37268404	      5.16710530	     -4.20827427	      7.90077850	     35.83467508	     -5.77083182	      4.96829251	    -51.99278329	     -5.28446396	     -5.26250374	     37.17065111	      3.43651830	      6.94448972	     -1.81155928
      7.83000000	     -8.22463764	     -7.68275223	      3.58710333	     -0.75389887	     -0.01679402	      2.07575410	      4.95060314	     13.26672325	    -10.92427738	     -9.62054901	      5.43229281	     -3.75863773	      8.24202406	     36.45104944	     -5.23341392	      4.55782318	    -49.29344653	     -4.60675340	     -4.98252178	     34.89082093	      3.34300040	      6.54435655	     -1.45404639
      7.84000000	     -8.32665686	     -7.32071795	      3.51815198	     -0.74210083	     -0.01726687	      2.07634228	      3.84180570	     13.00659180	    -10.94692065	     -8.91680572	      5.73670098	     -3.30106082	      8.49381777	     36.98028359	     -4.75047524	      4.06358866	    -46.33673832	     -4.04302878	     -4.54896389	     33.00540060	      3.28737411	      6.16785161	     -1.09135578
      7.85000000	     -8.47267793	     -6.99471640	      3.43746101	     -0.73023826	     -0.01796538	      2.07682851	      2.80008078	     12.76778077	    -11.00616313	     -8.25235737	      6.06413236	     -2.78436015	      8.65616134	     37.43403911	     -4.35302076	      3.46246380	    -43.14039076	     -3.65734044	     -3.88639108	     31.64476794	      3.28419519	      5.83695906	     -0.75587337
      7.86000000	     -8.73561187	     -6.76635344	      3.28018079	     -0.71834728	     -0.01900487	      2.07735047	      1.93659861	     12.62100270	    -11.09519487	     -7.68012195	      6.37615976	     -2.25417718	      8.72336156	     37.90641865	     -4.15338370	      2.66358184	    -39.74679645	     -3.43884396	     -2.91938822	     31.23883610	      3.40574194	      5.61139496	     -0.40006308
      7.87000000	     -8.84815089	     -6.53860158	      3.20951664	     -0.70631458	     -0.02003819	      2.07763032	      0.91623618	     12.46082301	    -11.31837165	     -7.12412747	      6.69449403	     -1.62047642	      8.77844704	     38.06123627	     -3.92866322	      1.81436350	    -36.14924589	     -3.34858302	     -1.76154777	     30.88088912	      3.38596970	      5.39813871	     -0.12567920
      7.88000000	     -8.94694182	     -6.36229752	      3.14812430	     -0.69416379	     -0.02120938	      2.07778819	     -0.07807503	     12.34087234	    -11.58947364	     -6.64992231	      6.98646843	     -0.96144847	      8.81379969	     38.07942639	     -3.75664253	      0.86614392	    -32.44441893	     -3.35812953	     -0.42583872	     30.70579873	      3.36677601	      5.24841597	      0.10747947
      7.89000000	     -8.98837270	     -6.19252901	      3.09397602	     -0.68187888	     -0.02240225	      2.07781312	     -1.07758785	     12.20662741	    -11.92895238	     -6.29717252	      7.27070083	     -0.24199535	      8.83203605	     37.90655551	     -3.57755565	     -0.17578712	    -28.68013887	     -3.41132011	      0.96359542	     30.66403273	      3.29655896	      5.11507256	      0.32618682
      7.90000000	     -8.98703706	     -6.00537573	      3.04824062	     -0.66945323	     -0.02358819	      2.07769112	     -2.04900001	     12.02260836	    -12.33260705	     -6.10284641	      7.56209095	      0.55953648	      8.83992677	     37.57903786	     -3.34510789	     -1.26394141	    -24.94258778	     -3.43782749	      2.31144497	     30.66919056	      3.19116191	      4.97488224	      0.51922516
      7.91000000	     -8.95575698	     -5.77314458	      3.00609696	     -0.65688315	     -0.02473310	      2.07741378	     -2.95924997	     11.74750160	    -12.80343852	     -6.10753576	      7.87122117	      1.46931512	      8.85175798	     37.12653658	     -3.01803125	     -2.34072220	    -21.30624229	     -3.38811593	      3.51317055	     30.57580963	      3.06321515	      4.79854272	      0.68999419
      7.92000000	     -8.90298303	     -5.47605131	      2.95155035	     -0.64415928	     -0.02580674	      2.07699979	     -3.79329739	     11.35184187	    -13.32268388	     -6.32828394	      8.20112377	      2.50018732	      8.88519821	     36.57229101	     -2.57805077	     -3.32464729	    -17.84169027	     -3.25926195	      4.49674256	     30.21241070	      2.92069662	      4.56111870	      0.84232574
      7.93000000	     -8.83044326	     -5.11225106	      2.87135893	     -0.63123954	     -0.02679182	      2.07642774	     -4.55170530	     10.82275961	    -13.84405976	     -6.76967531	      8.52932959	      3.65149099	      8.95487846	     35.93290162	     -2.03231790	     -4.18061842	    -14.62777782	     -3.07240757	      5.22758778	     29.43564248	      2.76980251	      4.27241177	      1.00241035
      7.94000000	     -8.64861062	     -4.67701742	      2.85871870	     -0.61807607	     -0.02762528	      2.07565063	     -5.37481937	     10.18857001	    -14.30144363	     -7.32899238	      8.75225181	      4.66457148	      9.01750545	     35.16010757	     -1.31924587	     -4.60968326	    -11.87870553	     -2.47414361	      5.72297987	     25.68959610	      2.52852738	      3.90737457	      1.04100850
      7.95000000	     -8.59346235	     -4.30806640	      2.73447957	     -0.60460991	     -0.02862949	      2.07495349	     -5.95997204	      9.54598686	    -14.78855159	     -8.13142440	      8.99679057	      5.98371884	      9.22825127	     34.56828794	     -0.75040414	     -5.23920911	     -9.60126548	     -2.08923179	      6.32497594	     24.44539395	      2.45843561	      3.60834417	      1.10638731
      7.96000000	     -8.62492021	     -3.96540067	      2.44915982	     -0.59088197	     -0.02965062	      2.07439426	     -6.37708533	      8.88818719	    -14.93398624	     -9.07750882	      8.97713429	      6.98830863	      9.88462351	     34.15004149	     -0.27164432	     -5.65610445	     -8.08848941	     -1.24803504	      6.78213268	     20.69700484	      2.50366212	      3.33822372	      1.37919302
      7.97000000	     -8.58094298	     -3.67050164	      2.17545862	     -0.57680777	     -0.03064408	      2.07385209	     -6.81708177	      8.23427531	    -15.13873101	    -10.16905119	      8.91802248	      8.21074412	     10.20385570	     33.73920102	      0.13434293	     -6.06495581	     -7.17944225	     -0.88821598	      7.03870081	     20.31195885	      2.51480426	      3.10217836	      1.56649101
      7.98000000	     -8.49898550	     -3.44097037	      1.83914761	     -0.56241142	     -0.03164702	      2.07341802	     -7.24353938	      7.61176671	    -15.21381853	    -11.36485130	      8.63090069	      9.39605093	     10.91149143	     33.42460955	      0.41268587	     -6.30364937	     -7.11430816	     -0.34471992	      7.18058494	     19.89471615	      2.52545978	      2.92268998	      1.80378590
      7.99000000	     -8.48108551	     -3.25612780	      1.51505614	     -0.54765301	     -0.03279606	      2.07302648	     -7.53313597	      6.99998331	    -15.27772596	    -12.68782359	      8.13212412	     10.56513485	     12.16925421	     33.28730904	      0.62713939	     -6.31620170	     -7.76476037	      0.05225195	      7.06571773	     19.95291410	      2.65478001	      2.76275019	      1.96598661
      8.00000000	     -8.49486683	     -3.07172452	      1.11672481	     -0.53261305	     -0.03396556	      2.07274391	     -7.71956176	      6.36643039	    -15.14617321	    -14.07735134	      7.13486510	     11.40403208	     15.17071788	     33.19522288	      0.79140384	     -6.06178106	     -8.83653276	     -0.10970373	      6.26792349	     20.83957057	      2.85067888	      2.59108276	      2.20941232
      8.01000000	     -8.56108402	     -2.82597191	      0.80149581	     -0.51730560	     -0.03519297	      2.07230539	     -7.72121386	      5.61230035	    -15.12420298	    -15.77834506	      6.44469048	     12.54384009	     15.58100864	     33.15677234	      1.05584831	     -5.58933387	    -10.18861161	     -0.63421015	      5.08867455	     20.74024252	      3.14103982	      2.33996994	      2.33802380
      8.02000000	     -8.50564466	     -2.46678067	      0.67428882	     -0.50194000	     -0.03615058	      2.07155915	     -7.79732842	      4.69868547	    -15.45452631	    -17.44614911	      4.91191975	     13.64751375	     19.68569725	     32.95641377	      1.54018087	     -4.83877318	    -11.57034718	     -1.59802819	      3.40455793	     19.04931909	      3.30434519	      1.95262785	      2.29465786
      8.03000000	     -8.65361883	     -1.96176771	      0.62523199	     -0.48666720	     -0.03703703	      2.07072065	     -7.45941544	      3.58697577	    -15.85134653	    -19.42663536	      3.22225862	     14.66451954	     22.76372223	     32.99919981	      2.19390844	     -4.12803961	    -12.93331741	     -2.86960933	      1.51901328	     15.94278045	      3.67132591	      1.38360078	      2.16084037
      8.04000000	     -8.87587883	     -1.33107840	      0.68025142	     -0.47157475	     -0.03772200	      2.06988104	     -6.87524842	      2.31587696	    -16.35069654	    -21.58129814	      0.92223184	     15.45171547	     26.45007946	     33.23040260	      2.96439412	     -3.69421158	    -14.36111869	     -4.25034785	     -0.16296532	     13.05186177	      4.08382631	      0.64853569	      1.90894650
      8.05000000	     -9.19926489	     -0.63981019	      0.77897877	     -0.45653664	     -0.03828346	      2.06916356	     -6.01846670	      0.94387120	    -16.92185482	    -23.88088829	     -2.09978644	     15.97076205	     30.65645665	     33.70661823	      3.74201832	     -3.61171810	    -15.94392177	     -5.70124758	     -1.48439858	     12.01524729	      4.59080009	     -0.18180996	      1.70731904
      8.06000000	     -9.47958796	      0.01497645	      0.87085031	     -0.44156553	     -0.03867573	      2.06856803	     -5.03831546	     -0.41679674	    -17.41996756	    -26.27219534	     -5.93311567	     16.08838080	     35.51298969	     34.22123307	      4.42900991	     -3.75985818	    -17.66484546	     -7.07368900	     -2.51149722	     13.16796513	      5.03511401	     -0.98209658	      1.51750433
      8.07000000	     -9.65466109	      0.67523677	      0.96860848	     -0.42656236	     -0.03890760	      2.06792892	     -4.00684129	     -1.83150697	    -17.86956779	    -28.75699541	    -10.42909563	     15.88214206	     40.77651944	     34.55400208	      5.12362709	     -3.95087020	    -19.30620015	     -8.26874202	     -3.46805830	     15.94384528	      5.36646420	     -1.77222011	      1.35822555
